<svg id="phone" xmlns="http://www.w3.org/2000/svg" width="24.002" height="24" viewBox="0 0 24.002 24">
  <g id="Groupe_60" data-name="Groupe 60">
    <g id="Groupe_59" data-name="Groupe 59" transform="translate(0 0)">
      <path id="Tracé_860" data-name="Tracé 860" d="M24.372,19.533l-4.858-3.24a1.418,1.418,0,0,0-1.9.308L16.2,18.421a.6.6,0,0,1-.776.163l-.269-.148a16.268,16.268,0,0,1-4.24-3.33,16.334,16.334,0,0,1-3.33-4.24L7.438,10.6a.606.606,0,0,1,.16-.778L9.416,8.4a1.419,1.419,0,0,0,.309-1.9L6.486,1.648a1.411,1.411,0,0,0-1.9-.428L2.553,2.44a2.866,2.866,0,0,0-1.307,1.7C.514,6.8,1.065,11.4,7.841,18.178c5.39,5.39,9.4,6.839,12.161,6.839a7.086,7.086,0,0,0,1.88-.246,2.863,2.863,0,0,0,1.7-1.307l1.222-2.03A1.411,1.411,0,0,0,24.372,19.533Zm-3.279,0-.485.667c-.269.461-1.9,3.091-1.848,3.042.039.052,3.53-1.618,1.848-3.042-1.192-1-5.907-.68-9.134-3.906C4.968,9.788,5.321,3.751,3.331,7.774c.146-.514,2.029,7.6,2.49,7.332l.665-.384c.28-.169-.846-12.9-.665-12.629,0,0-1.291,6.512-.482,7.726s1.147,1.167,1.147,1.167c.177.267,2.691-3.409,2.439-3.211L7.106,9.189c-.553.423-1.626,2.069-1.285,2.676l.665,1.992c.511.938,1.54-.505,3.861,1.815a16.985,16.985,0,0,0,4.423,3.467l.263.145c.608.341,5.637,1.47,6.061.917l-2.849-3.106A31.617,31.617,0,0,0,20,20.588l3.923-.388C23.922,20.222,21.262,19.253,21.093,19.533Z" transform="translate(-1 -1.018)" fill="#ff8500"/>
    </g>
  </g>
</svg>
