<svg xmlns="http://www.w3.org/2000/svg" width="48.706" height="40.249" viewBox="0 0 48.706 40.249">
  <g id="Composant_31_2" data-name="Composant 31 – 2" transform="translate(5 5)">
    <g id="Tracé_946" data-name="Tracé 946" transform="translate(-5 -5)">
      <path id="Tracé_1018" data-name="Tracé 1018" d="M-1604.4,2637.023l-1.365-2.657-5.281-10.282c-2.05.029-6.865.092-10.349.092-1.24,0-2.217-.008-2.9-.024-.4-.009-.705-.021-.93-.036a1.863,1.863,0,0,1-1.506-.683c-.352-.47-.377-.92-.4-2.27-.012-.683-.016-1.613-.011-2.764.008-1.884.037-3.763.039-3.906l.057-11.015,0-.572.367-.439a1.676,1.676,0,0,1,1.225-.583c.1-.007.226-.014.394-.02.294-.011.724-.022,1.277-.031,1.044-.019,2.538-.035,4.44-.049,3.626-.026,8.45-.04,13.583-.04,5.81,0,11.2.018,15.188.052,2.2.019,3.933.041,5.14.068.65.014,1.156.029,1.5.046a2.076,2.076,0,0,1,1.657.575,2.422,2.422,0,0,1,.485,1.659c.025.419.048,1.007.069,1.748.04,1.388.071,3.286.087,5.345.029,3.52.018,8.412-.1,10.614-.053.955-.091,1.645-.662,2.151l-.438.389-.585.012c-.055,0-5.51.11-9.219.11-2.252,0-3.881-.039-4.839-.071l-5.482,9.964Z" transform="translate(1628.735 -2600.156)" fill="#011627"/>
      <path id="Tracé_1019" data-name="Tracé 1019" d="M-1605.263,2632.729l5.956-10.825s2.021.11,5.756.11,9.187-.11,9.187-.11c.392-.348.259-18.98,0-19.267-.135-.149-11.455-.215-22.309-.215-10.007,0-19.618.056-19.7.154l-.057,11.023s-.122,7.732.057,7.972a33.4,33.4,0,0,0,4.067.106c4.557,0,11.312-.106,11.312-.106l5.732,11.159m-.1,6.764-2.729-5.313-4.831-9.406c-2.361.031-6.37.079-9.387.079-1.253,0-2.241-.008-2.938-.024-.424-.01-.751-.022-1-.039a3.431,3.431,0,0,1-2.672-1.315,4.94,4.94,0,0,1-.718-3.193c-.013-.694-.016-1.636-.012-2.8.008-1.86.036-3.717.039-3.916l.057-11.007.006-1.144.734-.877a3.221,3.221,0,0,1,2.324-1.147c.119-.009.262-.016.453-.024.309-.011.737-.022,1.309-.032,1.05-.019,2.55-.035,4.457-.049,3.63-.026,8.458-.04,13.594-.04,5.814,0,11.213.019,15.2.052,2.211.019,3.948.041,5.161.068.672.014,1.177.03,1.544.047.228.011.4.022.546.036s.25.028.362.047a3.216,3.216,0,0,1,1.856,1.016,3.921,3.921,0,0,1,.89,2.628c.026.435.05,1.039.072,1.8.04,1.4.071,3.308.088,5.378.03,3.713.018,8.478-.107,10.715-.022.393-.047.7-.077.95a3.508,3.508,0,0,1-1.116,2.3l-.875.777-1.17.023c-.055,0-5.526.11-9.251.11-1.632,0-2.944-.021-3.915-.044l-5.015,9.115Z" transform="translate(1629.647 -2599.245)" fill="#fff"/>
    </g>
    <g id="Composant_30_5" data-name="Composant 30 – 5" transform="translate(-1.824 -1.824)">
      <path id="Tracé_946-2" data-name="Tracé 946" d="M-1624.55,2623.394c-.179-.24-.056-7.972-.056-7.972l.056-11.023c.171-.2,41.751-.226,42.009.064s.392,18.919,0,19.267-14.943,0-14.943,0l-5.956,10.826-5.732-11.159S-1624.37,2623.633-1624.55,2623.394Z" transform="translate(1624.647 -2604.245)" fill="none"/>
      <g id="doctor_1_" data-name="doctor (1)" transform="translate(15.022 2.371)">
        <path id="Tracé_847" data-name="Tracé 847" d="M285.444,147.636a1.72,1.72,0,1,1,1.736-1.72A1.72,1.72,0,0,1,285.444,147.636Zm0-2.51a.79.79,0,1,0,.8.79.79.79,0,0,0-.8-.79Z" transform="translate(-274.497 -138.583)" fill="#fff"/>
        <path id="Tracé_848" data-name="Tracé 848" d="M40.221,8.709v2.634a2.763,2.763,0,1,1-5.527,0V8.208a4.429,4.429,0,0,0,3.922-4.414V1.141a.544.544,0,0,0-.553-.556H36.869V.548a.553.553,0,1,0-1.1,0V1.735a.553.553,0,1,0,1.1,0V1.7h.644v2.1a3.315,3.315,0,1,1-6.629,0V1.7h.608v.037a.553.553,0,1,0,1.1,0V.548a.553.553,0,1,0-1.1,0V.585H30.333a.544.544,0,0,0-.553.556V3.794a4.447,4.447,0,0,0,3.812,4.414v3.134a3.867,3.867,0,0,0,7.734,0V8.709Z" transform="translate(-29.78 0.024)" fill="#fff"/>
      </g>
    </g>
  </g>
</svg>
