<svg xmlns="http://www.w3.org/2000/svg" width="49.967" height="40.02" viewBox="0 0 49.967 40.02">
  <g id="Composant_30_4" data-name="Composant 30 – 4" transform="translate(2.481 2.5)">
    <g id="Groupe_150" data-name="Groupe 150" transform="translate(0 0)">
      <path id="Tracé_946" data-name="Tracé 946" d="M-1624.544,2624.585c-.19-.254-.06-8.468-.06-8.468l.06-11.709c.182-.217,44.347-.24,44.622.068s.416,20.1,0,20.465-15.873,0-15.873,0l-6.326,11.5-6.088-11.853S-1624.353,2624.839-1624.544,2624.585Z" transform="translate(1624.647 -2604.244)" fill="#ff8500" stroke="#fff" stroke-width="5"/>
      <g id="meds" transform="translate(15.957 3.209)">
        <path id="Tracé_852" data-name="Tracé 852" d="M12.452,1.042a3.559,3.559,0,0,0-5.034,0L4.231,4.231,1.043,7.419a3.559,3.559,0,0,0,5.034,5.034L9.265,9.265l3.188-3.188a3.559,3.559,0,0,0,0-5.034ZM5.406,11.782A2.61,2.61,0,0,1,1.714,8.09L4.566,5.237,8.258,8.929Zm6.376-6.376L8.929,8.258,5.238,4.566,8.09,1.714a2.611,2.611,0,1,1,3.692,3.692Zm0,0" transform="translate(0 0)" fill="#fff"/>
      </g>
    </g>
  </g>
</svg>
