<svg xmlns="http://www.w3.org/2000/svg" width="43.647" height="39.726" viewBox="0 0 43.647 39.726">
  <g id="Groupe_148" data-name="Groupe 148" transform="translate(-832.353 -1647.245)">
    <g id="Tracé_946" data-name="Tracé 946" transform="translate(2462 -952)" fill="#0494fa">
      <path d="M -1607.87451171875 2633.646728515625 L -1610.022583007812 2629.46484375 L -1613.867553710938 2621.9794921875 C -1615.740966796875 2622.004638671875 -1618.93603515625 2622.0419921875 -1621.3388671875 2622.0419921875 C -1622.333862304688 2622.0419921875 -1623.119018554688 2622.035400390625 -1623.672607421875 2622.022705078125 C -1624.00927734375 2622.01513671875 -1624.2685546875 2622.0048828125 -1624.465209960938 2621.991943359375 C -1624.847778320312 2621.966552734375 -1625.864135742188 2621.89892578125 -1626.570190429688 2620.956787109375 C -1627.103515625 2620.244140625 -1627.116577148438 2619.523681640625 -1627.13623046875 2618.432861328125 C -1627.146240234375 2617.88134765625 -1627.1494140625 2617.133056640625 -1627.1455078125 2616.209228515625 C -1627.139404296875 2614.731201171875 -1627.117065429688 2613.25634765625 -1627.114624023438 2613.0986328125 L -1627.069580078125 2604.35400390625 L -1627.06494140625 2603.453857421875 L -1626.487548828125 2602.763427734375 C -1625.762451171875 2601.896240234375 -1624.846069335938 2601.861572265625 -1624.298583984375 2601.841064453125 C -1624.053344726562 2601.831787109375 -1623.713500976562 2601.823486328125 -1623.259887695312 2601.8154296875 C -1622.426025390625 2601.800537109375 -1621.235473632812 2601.78759765625 -1619.72119140625 2601.776611328125 C -1616.838989257812 2601.756103515625 -1613.0048828125 2601.74462890625 -1608.92529296875 2601.74462890625 C -1604.3056640625 2601.74462890625 -1600.015502929688 2601.75927734375 -1596.845336914062 2601.78564453125 C -1595.088134765625 2601.800537109375 -1593.708251953125 2601.818603515625 -1592.743896484375 2601.839599609375 C -1592.209716796875 2601.85107421875 -1591.80859375 2601.86328125 -1591.517578125 2601.876953125 C -1590.935546875 2601.904296875 -1590.056030273438 2601.945556640625 -1589.338134765625 2602.74267578125 C -1588.7197265625 2603.4287109375 -1588.676025390625 2604.16552734375 -1588.637329101562 2604.815673828125 C -1588.616821289062 2605.160888671875 -1588.597778320312 2605.640625 -1588.58056640625 2606.241455078125 C -1588.548950195312 2607.3515625 -1588.524047851562 2608.8681640625 -1588.5107421875 2610.51171875 C -1588.486938476562 2613.460205078125 -1588.49658203125 2617.244140625 -1588.595336914062 2619.0224609375 C -1588.642944335938 2619.87744140625 -1588.69677734375 2620.846435546875 -1589.536010742188 2621.591552734375 L -1590.224731445312 2622.203125 L -1591.1455078125 2622.2216796875 C -1591.189086914062 2622.22265625 -1595.535400390625 2622.309326171875 -1598.494140625 2622.309326171875 C -1599.798217773438 2622.309326171875 -1600.84521484375 2622.29296875 -1601.617919921875 2622.27392578125 L -1605.6083984375 2629.527587890625 L -1607.87451171875 2633.646728515625 Z" stroke="none"/>
      <path d="M -1607.798828125 2628.322509765625 L -1603.0673828125 2619.72216796875 C -1603.0673828125 2619.72216796875 -1601.462158203125 2619.809326171875 -1598.494140625 2619.809326171875 C -1595.5263671875 2619.809326171875 -1591.19580078125 2619.72216796875 -1591.19580078125 2619.72216796875 C -1590.884521484375 2619.44580078125 -1590.989990234375 2604.64404296875 -1591.19580078125 2604.415771484375 C -1591.302734375 2604.296875 -1600.300170898438 2604.24462890625 -1608.92529296875 2604.24462890625 C -1616.872802734375 2604.24462890625 -1624.504516601562 2604.2890625 -1624.569580078125 2604.366943359375 L -1624.61474609375 2613.124267578125 C -1624.61474609375 2613.124267578125 -1624.7119140625 2619.267333984375 -1624.569580078125 2619.45751953125 C -1624.522094726562 2619.520751953125 -1623.149169921875 2619.5419921875 -1621.3388671875 2619.5419921875 C -1617.718994140625 2619.5419921875 -1612.352416992188 2619.45751953125 -1612.352416992188 2619.45751953125 L -1607.798828125 2628.322509765625 M -1607.950317382812 2638.970947265625 L -1612.246337890625 2630.60693359375 L -1615.383911132812 2624.4990234375 C -1617.195190429688 2624.5205078125 -1619.4794921875 2624.5419921875 -1621.3388671875 2624.5419921875 C -1622.3671875 2624.5419921875 -1623.149291992188 2624.535400390625 -1623.729858398438 2624.522216796875 C -1624.108276367188 2624.513427734375 -1624.394653320312 2624.502197265625 -1624.631103515625 2624.486328125 C -1624.848999023438 2624.471923828125 -1625.033325195312 2624.453125 -1625.211303710938 2624.42724609375 C -1627.049438476562 2624.159912109375 -1628.105102539062 2623.077392578125 -1628.57080078125 2622.455810546875 C -1629.588500976562 2621.09619140625 -1629.612548828125 2619.76513671875 -1629.635864257812 2618.478271484375 C -1629.646240234375 2617.907958984375 -1629.6494140625 2617.14111328125 -1629.6455078125 2616.19873046875 C -1629.639404296875 2614.72314453125 -1629.617919921875 2613.292724609375 -1629.614501953125 2613.072265625 L -1629.569458007812 2604.341064453125 L -1629.560180664062 2602.541015625 L -1628.405639648438 2601.159912109375 C -1626.967529296875 2599.439697265625 -1625.096801757812 2599.369384765625 -1624.392578125 2599.3427734375 C -1624.130615234375 2599.3330078125 -1623.774658203125 2599.32421875 -1623.304321289062 2599.315673828125 C -1622.461791992188 2599.30078125 -1621.262329101562 2599.28759765625 -1619.739135742188 2599.276611328125 C -1616.851196289062 2599.256103515625 -1613.0107421875 2599.24462890625 -1608.92529296875 2599.24462890625 C -1604.298950195312 2599.24462890625 -1600.00146484375 2599.25927734375 -1596.824462890625 2599.285888671875 C -1595.05615234375 2599.300537109375 -1593.664916992188 2599.31884765625 -1592.689453125 2599.340087890625 C -1592.13427734375 2599.35205078125 -1591.712646484375 2599.365234375 -1591.400512695312 2599.3798828125 C -1590.651245117188 2599.414794921875 -1588.896728515625 2599.4970703125 -1587.48046875 2601.06982421875 C -1586.276123046875 2602.405517578125 -1586.188720703125 2603.876953125 -1586.141723632812 2604.66748046875 C -1586.119506835938 2605.04345703125 -1586.099731445312 2605.534912109375 -1586.081665039062 2606.169921875 C -1586.049438476562 2607.296630859375 -1586.024291992188 2608.831298828125 -1586.010864257812 2610.491455078125 C -1585.986694335938 2613.478271484375 -1585.997192382812 2617.324462890625 -1586.099243164062 2619.1611328125 C -1586.119873046875 2619.533447265625 -1586.143920898438 2619.824951171875 -1586.174682617188 2620.07861328125 C -1586.343994140625 2621.470947265625 -1586.916381835938 2622.609130859375 -1587.876098632812 2623.461181640625 L -1589.253540039062 2624.68408203125 L -1591.09521484375 2624.72119140625 C -1591.274047851562 2624.724853515625 -1595.510375976562 2624.809326171875 -1598.494140625 2624.809326171875 C -1599.101684570312 2624.809326171875 -1599.65576171875 2624.8056640625 -1600.154296875 2624.800048828125 L -1603.41796875 2630.732666015625 L -1607.950317382812 2638.970947265625 Z" stroke="none" fill="#fff"/>
    </g>
    <g id="Composant_30_44" data-name="Composant 30 – 44" transform="translate(837.353 1652.245)">
      <path id="Tracé_946-2" data-name="Tracé 946" d="M-1624.57,2619.458c-.142-.19-.045-6.333-.045-6.333l.045-8.757c.136-.162,33.168-.179,33.374.049s.311,15.03,0,15.306-11.872,0-11.872,0l-4.731,8.6-4.554-8.865S-1624.427,2619.647-1624.57,2619.458Z" transform="translate(1624.647 -2604.245)" fill="none" stroke="#0494fa" stroke-width="1"/>
    </g>
    <g id="Groupe_147" data-name="Groupe 147" transform="translate(847.47 1653.332)">
      <g id="Groupe_54" data-name="Groupe 54">
        <path id="Tracé_855" data-name="Tracé 855" d="M85.308,76.531H81.694V72.916a.514.514,0,0,0-.516-.516H77.047a.514.514,0,0,0-.516.516v3.614H72.916a.514.514,0,0,0-.516.516v4.131a.514.514,0,0,0,.516.516h3.614v3.614a.514.514,0,0,0,.516.516h4.131a.514.514,0,0,0,.516-.516V81.694h3.614a.514.514,0,0,0,.516-.516V77.047A.555.555,0,0,0,85.308,76.531Zm-.488,4.131H81.178a.514.514,0,0,0-.516.516v3.614h-3.1V81.178a.514.514,0,0,0-.516-.516H73.433v-3.1h3.614a.514.514,0,0,0,.516-.516V73.433H80.69v3.614a.514.514,0,0,0,.516.516h3.614Z" transform="translate(-72.4 -72.4)" fill="#fff"/>
      </g>
    </g>
  </g>
</svg>
