<svg id="rubbish-bin" xmlns="http://www.w3.org/2000/svg" width="15.279" height="20.5" viewBox="0 0 15.279 20.5">
  <g id="Groupe_57" data-name="Groupe 57">
    <path id="Tracé_857" data-name="Tracé 857" d="M86.424,113.988a1.032,1.032,0,0,1-1.031.989H75.762a1.032,1.032,0,0,1-1.031-.989l-.688-14.52H87.111ZM78.4,103.074a.419.419,0,0,0-.419-.419h-.67a.419.419,0,0,0-.419.419v8.3a.419.419,0,0,0,.419.419h.67a.419.419,0,0,0,.419-.419Zm2.933,0a.419.419,0,0,0-.419-.419h-.67a.419.419,0,0,0-.419.419v8.3a.419.419,0,0,0,.419.419h.67a.419.419,0,0,0,.419-.419v-8.3Zm2.933,0a.419.419,0,0,0-.419-.419h-.67a.419.419,0,0,0-.419.419v8.3a.419.419,0,0,0,.419.419h.67a.419.419,0,0,0,.419-.419Z" transform="translate(-72.938 -94.476)" fill="#fff"/>
    <path id="Tracé_858" data-name="Tracé 858" d="M52.663,1.056h4.443V.216A.216.216,0,0,1,57.323,0h4.666A.216.216,0,0,1,62.2.216v.84h4.443A.647.647,0,0,1,67.3,1.7V3.737H52.016V1.7A.647.647,0,0,1,52.663,1.056Z" transform="translate(-52.016)" fill="#fff"/>
  </g>
</svg>
