<svg xmlns="http://www.w3.org/2000/svg" width="126" height="62" viewBox="0 0 126 62">
  <g id="logo__i__need" transform="translate(-24 -66)">
    <rect id="Rectangle_376" data-name="Rectangle 376" width="126" height="62" transform="translate(24 66)" fill="none"/>
    <g id="logo_i_need" transform="translate(31.646 77.468)">
      <path id="Tracé_818" data-name="Tracé 818" d="M10.5,32.3l1.992-2.656.664-1.328,1.66-1.66,1.328-1,1-1.66,1.328-.664h1.66L21.787,23l1.328.332,1.992,1,3.32,1,2.656,1.328,1,1,.664,1.328,1.66,1.992,3.32,3.984.332.664" transform="translate(-4.193 -8.394)" fill="none" stroke="#0494fa" stroke-width="2"/>
      <path id="Tracé_819" data-name="Tracé 819" d="M24.844,37.113l-2.6,2.6-2.6-2.6-.014-.014-.015-.013C13.911,32.036,9.244,27.855,6,23.906S1,16.332,1,12.386A11.216,11.216,0,0,1,12.386,1a12.5,12.5,0,0,1,9.352,4.366l.507.6.507-.6A12.5,12.5,0,0,1,32.105,1,11.216,11.216,0,0,1,43.491,12.386c0,3.946-1.759,7.579-5,11.519s-7.913,8.131-13.621,13.18l-.015.013Z" transform="translate(-1 -1)" fill="none" stroke="#0494fa" stroke-width="2"/>
      <path id="Tracé_820" data-name="Tracé 820" d="M77.3,17.527h3.654v13.81H77.3Zm11.124-.064h3l3.845,7.2,1.381,3.017h.085q-.021-.361-.106-1.126-.255-2.465-.255-3.824V17.463h2.762V31.337H96.162l-3.845-7.2-1.4-3.017h-.085q.021.255.106.956.106.977.191,2.061.085,1.062.085,1.891v5.311H88.428Zm14.067,0h8.583v2.443h-5.673v3.038h4.823v2.443h-4.823v3.506h5.885v2.443h-8.8Zm11.577,0h8.583v2.443h-5.673v3.038h4.823v2.443h-4.823v3.506h5.885v2.443h-8.8Zm11.578,0H129.5a7.068,7.068,0,0,1,5.078,1.721,6.767,6.767,0,0,1,1.827,5.163,7.034,7.034,0,0,1-1.806,5.226,6.708,6.708,0,0,1-4.929,1.763H125.65Zm3.676,11.515q4.079,0,4.079-4.632a4.76,4.76,0,0,0-1.062-3.463,4.037,4.037,0,0,0-3.017-1.062h-.765v9.157Z" transform="translate(-26.644 -6.533)" fill="#0494fa"/>
    </g>
  </g>
</svg>
