<svg xmlns="http://www.w3.org/2000/svg" width="87.133" height="32.793" viewBox="0 0 87.133 32.793"><defs><style>.a{fill:none;stroke:#0494fa;stroke-width:2px;}.b{fill:#0494fa;}</style></defs><path class="a" d="M10.5,30.294l1.563-2.084.521-1.042,1.3-1.3,1.042-.782.782-1.3,1.042-.521h1.3l1.3-.261,1.042.261,1.563.782,2.605.782,2.084,1.042.782.782.521,1.042,1.3,1.563,2.605,3.126.261.521" transform="translate(-4.55 -10.537)"/><path class="a" d="M19.712,29.34l-2.039,2.039L15.634,29.34l-.011-.011-.012-.011A101.088,101.088,0,0,1,4.922,18.975C2.381,15.883,1,13.032,1,9.936A8.8,8.8,0,0,1,9.936,1a9.812,9.812,0,0,1,7.34,3.426l.4.47.4-.47A9.812,9.812,0,0,1,25.41,1a8.8,8.8,0,0,1,8.936,8.936c0,3.1-1.381,5.948-3.922,9.04A101.09,101.09,0,0,1,19.735,29.318l-.012.011Z"/><path class="b" d="M77.3,17.513h2.868V28.351H77.3Zm8.73-.05h2.351L91.4,23.116l1.084,2.368h.067q-.016-.283-.083-.884-.2-1.934-.2-3V17.463h2.167V28.351H92.1L89.085,22.7l-1.1-2.368h-.067q.017.2.083.75.083.767.15,1.617.067.834.067,1.484v4.168H86.034Zm11.039,0h6.736v1.917H99.358v2.384h3.785v1.917H99.358v2.751h4.618v1.917h-6.9Zm9.085,0h6.736v1.917h-4.452v2.384h3.785v1.917h-3.785v2.751h4.618v1.917h-6.9Zm9.086,0h3.018a5.547,5.547,0,0,1,3.985,1.351,5.311,5.311,0,0,1,1.434,4.052,5.52,5.52,0,0,1-1.417,4.1,5.264,5.264,0,0,1-3.868,1.384h-3.151Zm2.884,9.037q3.2,0,3.2-3.635a3.735,3.735,0,0,0-.834-2.718,3.168,3.168,0,0,0-2.368-.834h-.6V26.5Z" transform="translate(-36.547 -7.886)"/></svg>