<svg id="phone" xmlns="http://www.w3.org/2000/svg" width="17" height="16.999" viewBox="0 0 17 16.999">
  <g id="Groupe_60" data-name="Groupe 60" transform="translate(0 0)">
    <g id="Groupe_59" data-name="Groupe 59">
      <path id="Tracé_860" data-name="Tracé 860" d="M17.554,14.132l-3.441-2.295a1,1,0,0,0-1.345.218l-1,1.289a.428.428,0,0,1-.549.116l-.191-.105a11.522,11.522,0,0,1-3-2.358,11.569,11.569,0,0,1-2.359-3L5.56,7.8a.429.429,0,0,1,.113-.551l1.288-1A1,1,0,0,0,7.18,4.9L4.885,1.464a1,1,0,0,0-1.347-.3L2.1,2.025a2.03,2.03,0,0,0-.925,1.2c-.518,1.888-.128,5.146,4.671,9.946,3.818,3.818,6.66,4.844,8.614,4.844a5.019,5.019,0,0,0,1.331-.174,2.028,2.028,0,0,0,1.2-.926l.865-1.438A1,1,0,0,0,17.554,14.132Zm-2.323,0-.344.472c-.191.326-1.343,2.189-1.309,2.154.027.037,2.5-1.146,1.309-2.154-.844-.71-4.184-.481-6.47-2.767C3.811,7.23,4.061,2.954,2.651,5.8c.1-.364,1.437,5.384,1.764,5.193l.471-.272c.2-.12-.6-9.138-.471-8.945,0,0-.915,4.612-.342,5.472s.812.826.812.826c.125.189,1.906-2.415,1.727-2.275l-1.288,1c-.392.3-1.151,1.465-.91,1.9l.471,1.411c.362.664,1.091-.358,2.734,1.285a12.031,12.031,0,0,0,3.133,2.455l.186.1c.43.241,3.993,1.041,4.293.649l-2.018-2.2a22.394,22.394,0,0,0,1.246,2.475l2.778-.275C17.235,14.62,15.351,13.933,15.232,14.132Z" transform="translate(-1 -1.018)" fill="#0494fa"/>
    </g>
  </g>
</svg>
