<svg id="doctor_1_" data-name="doctor (1)" xmlns="http://www.w3.org/2000/svg" width="19.424" height="23" viewBox="0 0 19.424 23">
  <path id="Tracé_847" data-name="Tracé 847" d="M287.039,150.833a3.319,3.319,0,1,1,3.349-3.319A3.346,3.346,0,0,1,287.039,150.833Zm0-4.843a1.525,1.525,0,1,0,1.539,1.525A1.538,1.538,0,0,0,287.039,145.99Z" transform="translate(-270.964 -137.134)" fill="#011627"/>
  <path id="Tracé_848" data-name="Tracé 848" d="M44.8,12.777v3.86a3.975,3.975,0,1,1-7.948,0V12.043A6.45,6.45,0,0,0,42.5,5.573V1.685A.791.791,0,0,0,41.7.87H39.98V.816a.8.8,0,1,0-1.59,0v1.74a.8.8,0,1,0,1.59,0V2.5h.927V5.573a4.771,4.771,0,1,1-9.538,0V2.5h.874v.054a.8.8,0,1,0,1.59,0V.816a.8.8,0,1,0-1.59,0V.87H30.575a.791.791,0,0,0-.795.816V5.573a6.484,6.484,0,0,0,5.484,6.47v4.594a5.566,5.566,0,1,0,11.128,0v-3.86H44.8Z" transform="translate(-29.78 0)" fill="#011627"/>
</svg>
